<?xml version="1.0" encoding="utf-8"?>
<!-- Generator: Adobe Illustrator 26.3.1, SVG Export Plug-In . SVG Version: 6.00 Build 0)  -->
<svg version="1.1" id="Layer_1" xmlns="http://www.w3.org/2000/svg" xmlns:xlink="http://www.w3.org/1999/xlink" x="0px" y="0px"
	 viewBox="0 0 264.5 296.3" style="enable-background:new 0 0 264.5 296.3;" xml:space="preserve">
<style type="text/css">
	.st0{fill:#8F05FB;}
	.st1{fill:#030100;stroke:#8F05FB;stroke-width:15;}
</style>
<g>
	<path class="st0" d="M43.5,2.3c7,0,23.1,2.2,23.1,11.4v9H53.8v-4.4c0-3.2-5.8-4.1-9.7-4.1c-9.3,0-15.8,6-15.8,16.6
		c0,11.8,7,18.5,16.6,18.5c2.6,0,9.5-0.6,9.5-4.1v-4.4h12.8V50c0,8.7-15.4,11.3-23.4,11.3c-17.5,0-30.3-13-30.3-29.7
		C13.6,14.6,26.8,2.3,43.5,2.3z"/>
	<path class="st0" d="M103.5,2.3c17.4,0,30.1,12.8,30.1,29.2c0,16.8-12.6,29.9-30.1,29.9S73.4,48.3,73.4,31.5
		C73.4,15.1,86.1,2.3,103.5,2.3z M103.5,49c8.4,0,15.3-7.5,15.3-17.5c0-9.6-6.9-16.8-15.3-16.8s-15.3,7.2-15.3,16.8
		C88.2,41.5,95.1,49,103.5,49z"/>
	<path class="st0" d="M138.7,50h6.2l3-36.4h-6.4V3.2H164l9.6,28.3c1.2,3.5,1.6,5.9,1.6,5.9h0.2c0,0,0.4-2.4,1.6-5.9l9.6-28.3h22.5
		v10.4h-6.4l3,36.4h6.2v10.4H186V50h5.7l-1.4-20.6c-0.2-2.4,0.3-6.4,0.3-6.4h-0.3c0,0-0.6,3.7-1.5,6.1L181.4,50h-12l-7.5-20.9
		c-0.9-2.4-1.5-6.1-1.5-6.1H160c0,0,0.5,4,0.3,6.4L159,50h5.7v10.4h-25.9V50H138.7z"/>
	<path class="st0" d="M4.4,125h6.2l3-36.4H7.3V78.2h22.5l9.6,28.3c1.2,3.5,1.6,5.9,1.6,5.9h0.2c0,0,0.4-2.4,1.6-5.9l9.6-28.3h22.5
		v10.4h-6.4l3,36.4h6.2v10.4H51.8V125h5.7l-1.4-20.6c-0.2-2.4,0.3-6.4,0.3-6.4h-0.3c0,0-0.6,3.7-1.5,6.1L47,125H35l-7.5-20.9
		C26.6,101.7,26,98,26,98h-0.3c0,0,0.5,4,0.3,6.4L24.6,125h5.7v10.4H4.4V125z"/>
	<path class="st0" d="M89,88.6h-6.4V78.2h27.1v10.4h-6.4v25c0,2.6,0.6,4.8,1.4,6.3c1.5,2.6,4.6,4.1,8.6,4.1c3.7,0,6.6-1.3,8.3-4
		c1-1.7,1.5-3.8,1.5-6.4v-25h-6.4V78.2h27.1v10.4h-6.4v25c0,5.7-1.8,11.2-4.7,14.9c-4.4,5.4-12,7.9-19.5,7.9
		c-8.2,0-15.3-2.9-19.4-7.7c-3.4-3.8-4.8-9.1-4.8-15.1C89,113.6,89,88.6,89,88.6z"/>
	<path class="st0" d="M150,125h6.4V88.6H150V78.2h20.9l17.9,30.3c1.4,2.3,2.4,5.8,2.4,5.8h0.3c0,0-0.5-3.8-0.5-6.4V88.6h-6.7V78.2
		h27.4v10.4h-6.4v46.8H191l-18-30.2c-1.4-2.3-2.4-5.8-2.4-5.8h-0.3c0,0,0.5,3.8,0.5,6.4V125h6.7v10.4H150V125z"/>
	<path class="st0" d="M74.5,200h6.4v-36.4h-6.4v-10.4h27.1v10.4h-6.4V200h6.4v10.4H74.5V200z"/>
	<path class="st0" d="M119.8,200h6.4v-35.6h-6.8v8.1h-12v-19.3h51.9v19.3h-12v-8.1h-6.8V200h6.4v10.4h-27.1
		C119.8,210.4,119.8,200,119.8,200z"/>
	<path class="st0" d="M174.4,200h6.4v-13l-14-23.4h-4.9v-10.4h23.7v10.4h-4.8l5.8,10.6c0.9,1.6,1.3,2.8,1.3,2.8h0.2
		c0,0,0.4-1.2,1.3-2.8l5.8-10.6h-4.8v-10.4H214v10.4h-4.9l-14,23.4v13h6.4v10.4h-27.1V200z"/>
</g>
<g>
	<path class="st0" d="M102.7,256.3v1.3c0,1.3,1.7,2.1,3.5,2.1c2,0,3.5-1,3.5-2.7c0-2-2.1-2.7-4.2-3.6c-2.3-0.9-4.7-1.9-4.7-5
		c0-3.3,2.7-4.7,5.6-4.7c2.6,0,5.3,1,5.3,2.9v2.1h-2.3v-1.2c0-1-1.6-1.6-3-1.6c-1.7,0-3.1,0.8-3.1,2.4c0,1.9,1.8,2.5,3.7,3.2
		c2.6,1,5.2,2,5.2,5.2c0,3.4-2.7,5.1-6,5.1c-2.7,0-5.8-1.2-5.8-3.7v-1.8L102.7,256.3L102.7,256.3z"/>
	<path class="st0" d="M124.1,243.6c2.1,0,6.7,0.8,6.7,3.5v2.1h-2.3v-1.4c0-1.5-2.7-2.1-4.3-2.1c-3.8,0-6.5,2.8-6.5,6.8
		c0,4.2,2.8,7.1,6.7,7.1c1.2,0,4.4-0.4,4.4-2.1v-1.4h2.3v2.1c0,2.6-4.4,3.5-6.9,3.5c-5.3,0-9.1-4.1-9.1-9.2
		C115.1,247.5,119,243.6,124.1,243.6z"/>
	<path class="st0" d="M134.1,259.6h2.2v-13.8h-2.2v-1.9h6.9v1.9h-2.2v13.8h2.2v2h-6.9V259.6z"/>
	<path class="st0" d="M143.9,259.6h2.2v-13.8h-2.2v-1.9h12.8v4.1h-2.2v-2h-5.9v5.7h6.2v2h-6.2v5.8h6.3v-2.1h2.2v4.2h-13.2
		L143.9,259.6L143.9,259.6z"/>
	<path class="st0" d="M160,259.6h2.2v-13.8H160v-1.9h4.7l8.7,12.6c0.3,0.5,0.6,1.3,0.6,1.3h0.1c0,0-0.1-0.9-0.1-1.4v-10.6h-2.2v-1.9
		h7v1.9h-2.2v15.7h-2.4l-8.7-12.6c-0.3-0.5-0.6-1.3-0.6-1.3h-0.1c0,0,0.1,0.9,0.1,1.4v10.5h2.3v2h-7v-1.9H160z"/>
	<path class="st0" d="M190,243.6c2.1,0,6.7,0.8,6.7,3.5v2.1h-2.3v-1.4c0-1.5-2.7-2.1-4.3-2.1c-3.8,0-6.5,2.8-6.5,6.8
		c0,4.2,2.8,7.1,6.7,7.1c1.2,0,4.4-0.4,4.4-2.1v-1.4h2.3v2.1c0,2.6-4.4,3.5-6.9,3.5c-5.3,0-9.1-4.1-9.1-9.2
		C181,247.5,184.9,243.6,190,243.6z"/>
	<path class="st0" d="M200,259.6h2.2v-13.8H200v-1.9h12.8v4.1h-2.2v-2h-5.9v5.7h6.2v2h-6.2v5.8h6.3v-2.1h2.2v4.2H200V259.6z"/>
	<path class="st0" d="M97.5,289.6h2.2l1.1-13.8h-2.2v-1.9h5l4.5,10.7c0.3,0.7,0.4,1.3,0.4,1.3l0,0c0,0,0.1-0.5,0.4-1.3l4.5-10.7h5
		v1.9h-2.2l1.1,13.8h2.2v2h-6.8v-2h2.1l-0.8-10.5c0-0.5,0.1-1.5,0.1-1.5H114c0,0-0.2,0.9-0.4,1.3l-4,9.3h-2.2l-4-9.3
		c-0.2-0.5-0.4-1.3-0.4-1.3h-0.1c0,0,0.1,0.9,0.1,1.5l-0.8,10.5h2.1v2h-6.8C97.5,291.6,97.5,289.6,97.5,289.6z"/>
	<path class="st0" d="M123.5,275.8h-2.2v-1.9h6.9v1.9H126v9.1c0,1.1,0.2,2.1,0.7,2.9c0.7,1.2,2.1,1.8,3.8,1.8s3.1-0.6,3.8-1.8
		c0.4-0.7,0.7-1.7,0.7-2.8v-9.1h-2.2V274h6.9v1.9h-2.2v9.1c0,1.7-0.5,3.2-1.2,4.3c-1.2,1.7-3.3,2.6-5.7,2.6c-2.5,0-4.6-1-5.8-2.6
		c-0.8-1.1-1.2-2.6-1.2-4.3v-9.2H123.5z"/>
	<path class="st0" d="M144,286.3v1.3c0,1.3,1.7,2.1,3.5,2.1c2,0,3.5-1,3.5-2.7c0-2-2.1-2.7-4.2-3.6c-2.3-0.9-4.7-1.9-4.7-5
		c0-3.3,2.7-4.7,5.6-4.7c2.6,0,5.3,1,5.3,2.9v2.1h-2.3v-1.2c0-1-1.6-1.6-3-1.6c-1.7,0-3.1,0.8-3.1,2.4c0,1.9,1.8,2.5,3.7,3.2
		c2.6,1,5.2,2,5.2,5.2c0,3.4-2.7,5.1-6,5.1c-2.8,0-5.8-1.2-5.8-3.7v-1.8L144,286.3L144,286.3z"/>
	<path class="st0" d="M156.1,289.6h2.2v-13.8h-2.2v-1.9h12.8v4.1h-2.2v-2h-5.9v5.7h6.2v2h-6.2v5.8h6.3v-2.1h2.2v4.2h-13.2
		L156.1,289.6L156.1,289.6z"/>
	<path class="st0" d="M173.6,275.8h-2.2v-1.9h6.9v1.9h-2.2v9.1c0,1.1,0.2,2.1,0.7,2.9c0.7,1.2,2.1,1.8,3.8,1.8s3.1-0.6,3.8-1.8
		c0.4-0.7,0.7-1.7,0.7-2.8v-9.1h-2.2V274h6.9v1.9h-2.2v9.1c0,1.7-0.5,3.2-1.2,4.3c-1.2,1.7-3.3,2.6-5.7,2.6c-2.5,0-4.6-1-5.8-2.6
		c-0.8-1.1-1.2-2.6-1.2-4.3v-9.2H173.6z"/>
	<path class="st0" d="M191.5,289.6h2.2l1.1-13.8h-2.2v-1.9h5l4.5,10.7c0.3,0.7,0.4,1.3,0.4,1.3l0,0c0,0,0.1-0.5,0.4-1.3l4.5-10.7h5
		v1.9h-2.2l1.1,13.8h2.2v2h-6.8v-2h2.1l-0.8-10.5c0-0.5,0.1-1.5,0.1-1.5H208c0,0-0.2,0.9-0.4,1.3l-4,9.3h-2.2l-4-9.3
		c-0.2-0.5-0.4-1.3-0.4-1.3h-0.1c0,0,0.1,0.9,0.1,1.5l-0.8,10.5h2.1v2h-6.8L191.5,289.6L191.5,289.6z"/>
</g>
<line class="st1" x1="250.8" y1="3" x2="250.8" y2="293.3"/>
</svg>
