<svg width="244" height="292" viewBox="0 0 244 292" fill="none" xmlns="http://www.w3.org/2000/svg">
<path d="M83.6562 16.7188C80.0104 16.7188 77.1875 18.0938 75.1875 20.8438C73.1875 23.5729 72.1875 27.3854 72.1875 32.2812C72.1875 42.4688 76.0104 47.5625 83.6562 47.5625C86.8646 47.5625 90.75 46.7604 95.3125 45.1562V53.2812C91.5625 54.8438 87.375 55.625 82.75 55.625C76.1042 55.625 71.0208 53.6146 67.5 49.5938C63.9792 45.5521 62.2188 39.7604 62.2188 32.2188C62.2188 27.4688 63.0833 23.3125 64.8125 19.75C66.5417 16.1667 69.0208 13.4271 72.25 11.5312C75.5 9.61458 79.3021 8.65625 83.6562 8.65625C88.0938 8.65625 92.5521 9.72917 97.0312 11.875L93.9062 19.75C92.1979 18.9375 90.4792 18.2292 88.75 17.625C87.0208 17.0208 85.3229 16.7188 83.6562 16.7188ZM145.906 32.0938C145.906 39.6562 144.031 45.4688 140.281 49.5312C136.531 53.5938 131.156 55.625 124.156 55.625C117.156 55.625 111.781 53.5938 108.031 49.5312C104.281 45.4688 102.406 39.6354 102.406 32.0312C102.406 24.4271 104.281 18.625 108.031 14.625C111.802 10.6042 117.198 8.59375 124.219 8.59375C131.24 8.59375 136.604 10.6146 140.312 14.6562C144.042 18.6979 145.906 24.5104 145.906 32.0938ZM112.562 32.0938C112.562 37.1979 113.531 41.0417 115.469 43.625C117.406 46.2083 120.302 47.5 124.156 47.5C131.885 47.5 135.75 42.3646 135.75 32.0938C135.75 21.8021 131.906 16.6562 124.219 16.6562C120.365 16.6562 117.458 17.9583 115.5 20.5625C113.542 23.1458 112.562 26.9896 112.562 32.0938ZM174.719 55L163.719 19.1562H163.438C163.833 26.4479 164.031 31.3125 164.031 33.75V55H155.375V9.3125H168.562L179.375 44.25H179.562L191.031 9.3125H204.219V55H195.188V33.375C195.188 32.3542 195.198 31.1771 195.219 29.8438C195.26 28.5104 195.406 24.9688 195.656 19.2188H195.375L183.594 55H174.719ZM74.2812 116L63.2812 80.1562H63C63.3958 87.4479 63.5938 92.3125 63.5938 94.75V116H54.9375V70.3125H68.125L78.9375 105.25H79.125L90.5938 70.3125H103.781V116H94.75V94.375C94.75 93.3542 94.7604 92.1771 94.7812 90.8438C94.8229 89.5104 94.9688 85.9688 95.2188 80.2188H94.9375L83.1562 116H74.2812ZM152.5 70.3125V99.875C152.5 103.25 151.74 106.208 150.219 108.75C148.719 111.292 146.542 113.24 143.688 114.594C140.833 115.948 137.458 116.625 133.562 116.625C127.688 116.625 123.125 115.125 119.875 112.125C116.625 109.104 115 104.979 115 99.75V70.3125H124.656V98.2812C124.656 101.802 125.365 104.385 126.781 106.031C128.198 107.677 130.542 108.5 133.812 108.5C136.979 108.5 139.271 107.677 140.688 106.031C142.125 104.365 142.844 101.76 142.844 98.2188V70.3125H152.5ZM204.219 116H191.906L172.031 81.4375H171.75C172.146 87.5417 172.344 91.8958 172.344 94.5V116H163.688V70.3125H175.906L195.75 104.531H195.969C195.656 98.5938 195.5 94.3958 195.5 91.9375V70.3125H204.219V116ZM130.906 177H110.125V171.5L115.688 168.938V139.375L110.125 136.812V131.312H130.906V136.812L125.344 139.375V168.938L130.906 171.5V177ZM156.375 177H146.688V139.375H134.281V131.312H168.781V139.375H156.375V177ZM190.031 150.125L199.562 131.312H210L194.844 159.219V177H185.219V159.531L170.062 131.312H180.562L190.031 150.125Z" fill="white"/>
<path d="M117.836 255.21C117.836 256.49 117.526 257.58 116.906 258.48C116.286 259.38 115.396 260.08 114.236 260.58C113.076 261.06 111.696 261.3 110.096 261.3C109.316 261.3 108.566 261.25 107.846 261.15C107.126 261.07 106.456 260.95 105.836 260.79C105.216 260.63 104.666 260.43 104.186 260.19V257.13C104.986 257.49 105.926 257.82 107.006 258.12C108.086 258.4 109.186 258.54 110.306 258.54C111.266 258.54 112.066 258.41 112.706 258.15C113.346 257.89 113.826 257.53 114.146 257.07C114.466 256.61 114.626 256.07 114.626 255.45C114.626 254.79 114.456 254.24 114.116 253.8C113.796 253.34 113.286 252.92 112.586 252.54C111.906 252.14 110.986 251.72 109.826 251.28C109.026 250.98 108.296 250.65 107.636 250.29C106.996 249.91 106.426 249.47 105.926 248.97C105.446 248.47 105.076 247.89 104.816 247.23C104.556 246.57 104.426 245.8 104.426 244.92C104.426 243.74 104.716 242.73 105.296 241.89C105.896 241.05 106.716 240.41 107.756 239.97C108.796 239.51 110.006 239.28 111.386 239.28C112.546 239.28 113.616 239.4 114.596 239.64C115.596 239.86 116.546 240.17 117.446 240.57L116.426 243.24C115.606 242.9 114.776 242.62 113.936 242.4C113.096 242.18 112.216 242.07 111.296 242.07C110.496 242.07 109.826 242.19 109.286 242.43C108.746 242.67 108.336 243 108.056 243.42C107.796 243.84 107.666 244.33 107.666 244.89C107.666 245.55 107.816 246.1 108.116 246.54C108.416 246.98 108.896 247.39 109.556 247.77C110.216 248.13 111.086 248.53 112.166 248.97C113.366 249.43 114.386 249.93 115.226 250.47C116.086 251.01 116.736 251.66 117.176 252.42C117.616 253.16 117.836 254.09 117.836 255.21ZM128.18 261.3C126.7 261.3 125.4 261.01 124.28 260.43C123.16 259.85 122.29 258.95 121.67 257.73C121.05 256.49 120.74 254.92 120.74 253.02C120.74 251.02 121.07 249.4 121.73 248.16C122.41 246.92 123.32 246.01 124.46 245.43C125.62 244.83 126.94 244.53 128.42 244.53C129.32 244.53 130.16 244.63 130.94 244.83C131.74 245.01 132.4 245.22 132.92 245.46L131.96 248.04C131.4 247.82 130.8 247.63 130.16 247.47C129.54 247.31 128.95 247.23 128.39 247.23C127.39 247.23 126.56 247.45 125.9 247.89C125.26 248.31 124.78 248.95 124.46 249.81C124.16 250.65 124.01 251.71 124.01 252.99C124.01 254.21 124.17 255.24 124.49 256.08C124.81 256.92 125.28 257.56 125.9 258C126.54 258.42 127.33 258.63 128.27 258.63C129.17 258.63 129.96 258.53 130.64 258.33C131.32 258.13 131.96 257.87 132.56 257.55V260.31C131.98 260.65 131.35 260.9 130.67 261.06C129.99 261.22 129.16 261.3 128.18 261.3ZM139.557 244.83V261H136.377V244.83H139.557ZM137.997 238.68C138.477 238.68 138.897 238.82 139.257 239.1C139.617 239.38 139.797 239.85 139.797 240.51C139.797 241.15 139.617 241.62 139.257 241.92C138.897 242.2 138.477 242.34 137.997 242.34C137.477 242.34 137.037 242.2 136.677 241.92C136.337 241.62 136.167 241.15 136.167 240.51C136.167 239.85 136.337 239.38 136.677 239.1C137.037 238.82 137.477 238.68 137.997 238.68ZM150.911 244.53C152.331 244.53 153.551 244.83 154.571 245.43C155.591 246.01 156.371 246.85 156.911 247.95C157.471 249.05 157.751 250.35 157.751 251.85V253.59H146.891C146.931 255.25 147.361 256.52 148.181 257.4C149.021 258.28 150.191 258.72 151.691 258.72C152.731 258.72 153.651 258.63 154.451 258.45C155.271 258.25 156.111 257.96 156.971 257.58V260.22C156.171 260.58 155.351 260.85 154.511 261.03C153.691 261.21 152.711 261.3 151.571 261.3C150.011 261.3 148.631 260.99 147.431 260.37C146.231 259.75 145.291 258.83 144.611 257.61C143.951 256.37 143.621 254.85 143.621 253.05C143.621 251.23 143.921 249.69 144.521 248.43C145.141 247.17 145.991 246.21 147.071 245.55C148.171 244.87 149.451 244.53 150.911 244.53ZM150.911 246.99C149.771 246.99 148.851 247.36 148.151 248.1C147.471 248.84 147.071 249.89 146.951 251.25H154.571C154.571 250.41 154.441 249.67 154.181 249.03C153.921 248.39 153.521 247.89 152.981 247.53C152.441 247.17 151.751 246.99 150.911 246.99ZM169.909 244.53C171.789 244.53 173.229 245 174.229 245.94C175.229 246.88 175.729 248.39 175.729 250.47V261H172.579V250.92C172.579 249.66 172.309 248.72 171.769 248.1C171.249 247.46 170.409 247.14 169.249 247.14C167.609 247.14 166.469 247.63 165.829 248.61C165.209 249.59 164.899 251 164.899 252.84V261H161.719V244.83H164.239L164.689 246.99H164.869C165.229 246.43 165.669 245.97 166.189 245.61C166.709 245.25 167.289 244.98 167.929 244.8C168.569 244.62 169.229 244.53 169.909 244.53ZM187.125 261.3C185.645 261.3 184.345 261.01 183.225 260.43C182.105 259.85 181.235 258.95 180.615 257.73C179.995 256.49 179.685 254.92 179.685 253.02C179.685 251.02 180.015 249.4 180.675 248.16C181.355 246.92 182.265 246.01 183.405 245.43C184.565 244.83 185.885 244.53 187.365 244.53C188.265 244.53 189.105 244.63 189.885 244.83C190.685 245.01 191.345 245.22 191.865 245.46L190.905 248.04C190.345 247.82 189.745 247.63 189.105 247.47C188.485 247.31 187.895 247.23 187.335 247.23C186.335 247.23 185.505 247.45 184.845 247.89C184.205 248.31 183.725 248.95 183.405 249.81C183.105 250.65 182.955 251.71 182.955 252.99C182.955 254.21 183.115 255.24 183.435 256.08C183.755 256.92 184.225 257.56 184.845 258C185.485 258.42 186.275 258.63 187.215 258.63C188.115 258.63 188.905 258.53 189.585 258.33C190.265 258.13 190.905 257.87 191.505 257.55V260.31C190.925 260.65 190.295 260.9 189.615 261.06C188.935 261.22 188.105 261.3 187.125 261.3ZM201.682 244.53C203.102 244.53 204.322 244.83 205.342 245.43C206.362 246.01 207.142 246.85 207.682 247.95C208.242 249.05 208.522 250.35 208.522 251.85V253.59H197.662C197.702 255.25 198.132 256.52 198.952 257.4C199.792 258.28 200.962 258.72 202.462 258.72C203.502 258.72 204.422 258.63 205.222 258.45C206.042 258.25 206.882 257.96 207.742 257.58V260.22C206.942 260.58 206.122 260.85 205.282 261.03C204.462 261.21 203.482 261.3 202.342 261.3C200.782 261.3 199.402 260.99 198.202 260.37C197.002 259.75 196.062 258.83 195.382 257.61C194.722 256.37 194.392 254.85 194.392 253.05C194.392 251.23 194.692 249.69 195.292 248.43C195.912 247.17 196.762 246.21 197.842 245.55C198.942 244.87 200.222 244.53 201.682 244.53ZM201.682 246.99C200.542 246.99 199.622 247.36 198.922 248.1C198.242 248.84 197.842 249.89 197.722 251.25H205.342C205.342 250.41 205.212 249.67 204.952 249.03C204.692 248.39 204.292 247.89 203.752 247.53C203.212 247.17 202.522 246.99 201.682 246.99ZM96.6722 289L90.1922 270.79H90.0722C90.0922 271.19 90.1222 271.73 90.1622 272.41C90.2022 273.09 90.2322 273.82 90.2522 274.6C90.2722 275.38 90.2822 276.15 90.2822 276.91V289H87.3422V267.58H91.9622L98.1122 284.77H98.2322L104.562 267.58H109.182V289H106.032V276.73C106.032 276.03 106.042 275.31 106.062 274.57C106.102 273.81 106.132 273.1 106.152 272.44C106.192 271.78 106.222 271.24 106.242 270.82H106.122L99.4622 289H96.6722ZM128.441 272.83V289H125.891L125.441 286.87H125.291C124.951 287.43 124.511 287.89 123.971 288.25C123.431 288.61 122.841 288.87 122.201 289.03C121.561 289.21 120.901 289.3 120.221 289.3C118.961 289.3 117.891 289.1 117.011 288.7C116.151 288.28 115.491 287.64 115.031 286.78C114.591 285.9 114.371 284.78 114.371 283.42V272.83H117.581V282.94C117.581 284.2 117.841 285.14 118.361 285.76C118.901 286.38 119.731 286.69 120.851 286.69C121.971 286.69 122.851 286.47 123.491 286.03C124.131 285.59 124.581 284.95 124.841 284.11C125.121 283.25 125.261 282.22 125.261 281.02V272.83H128.441ZM144.158 284.44C144.158 285.5 143.898 286.39 143.378 287.11C142.858 287.83 142.108 288.38 141.128 288.76C140.148 289.12 138.968 289.3 137.588 289.3C136.448 289.3 135.468 289.21 134.648 289.03C133.848 288.87 133.108 288.63 132.428 288.31V285.52C133.148 285.86 133.978 286.17 134.918 286.45C135.858 286.71 136.778 286.84 137.678 286.84C138.878 286.84 139.738 286.65 140.258 286.27C140.798 285.89 141.068 285.38 141.068 284.74C141.068 284.38 140.968 284.06 140.768 283.78C140.568 283.48 140.188 283.18 139.628 282.88C139.088 282.56 138.288 282.2 137.228 281.8C136.208 281.38 135.338 280.97 134.618 280.57C133.898 280.15 133.348 279.66 132.968 279.1C132.588 278.52 132.398 277.78 132.398 276.88C132.398 275.48 132.958 274.41 134.078 273.67C135.218 272.91 136.718 272.53 138.578 272.53C139.558 272.53 140.478 272.63 141.338 272.83C142.218 273.01 143.068 273.29 143.888 273.67L142.838 276.1C142.378 275.88 141.898 275.7 141.398 275.56C140.918 275.4 140.428 275.27 139.928 275.17C139.448 275.07 138.948 275.02 138.428 275.02C137.468 275.02 136.738 275.17 136.238 275.47C135.738 275.77 135.488 276.19 135.488 276.73C135.488 277.11 135.598 277.44 135.818 277.72C136.058 278 136.468 278.28 137.048 278.56C137.628 278.84 138.418 279.18 139.418 279.58C140.418 279.96 141.268 280.35 141.968 280.75C142.688 281.15 143.228 281.64 143.588 282.22C143.968 282.8 144.158 283.54 144.158 284.44ZM154.309 272.53C155.729 272.53 156.949 272.83 157.969 273.43C158.989 274.01 159.769 274.85 160.309 275.95C160.869 277.05 161.149 278.35 161.149 279.85V281.59H150.289C150.329 283.25 150.759 284.52 151.579 285.4C152.419 286.28 153.589 286.72 155.089 286.72C156.129 286.72 157.049 286.63 157.849 286.45C158.669 286.25 159.509 285.96 160.369 285.58V288.22C159.569 288.58 158.749 288.85 157.909 289.03C157.089 289.21 156.109 289.3 154.969 289.3C153.409 289.3 152.029 288.99 150.829 288.37C149.629 287.75 148.689 286.83 148.009 285.61C147.349 284.37 147.019 282.85 147.019 281.05C147.019 279.23 147.319 277.69 147.919 276.43C148.539 275.17 149.389 274.21 150.469 273.55C151.569 272.87 152.849 272.53 154.309 272.53ZM154.309 274.99C153.169 274.99 152.249 275.36 151.549 276.1C150.869 276.84 150.469 277.89 150.349 279.25H157.969C157.969 278.41 157.839 277.67 157.579 277.03C157.319 276.39 156.919 275.89 156.379 275.53C155.839 275.17 155.149 274.99 154.309 274.99ZM179.037 272.83V289H176.487L176.037 286.87H175.887C175.547 287.43 175.107 287.89 174.567 288.25C174.027 288.61 173.437 288.87 172.797 289.03C172.157 289.21 171.497 289.3 170.817 289.3C169.557 289.3 168.487 289.1 167.607 288.7C166.747 288.28 166.087 287.64 165.627 286.78C165.187 285.9 164.967 284.78 164.967 283.42V272.83H168.177V282.94C168.177 284.2 168.437 285.14 168.957 285.76C169.497 286.38 170.327 286.69 171.447 286.69C172.567 286.69 173.447 286.47 174.087 286.03C174.727 285.59 175.177 284.95 175.437 284.11C175.717 283.25 175.857 282.22 175.857 281.02V272.83H179.037ZM202.133 272.53C203.953 272.53 205.323 273 206.243 273.94C207.163 274.88 207.623 276.39 207.623 278.47V289H204.443V278.89C204.443 277.65 204.193 276.72 203.693 276.1C203.213 275.46 202.453 275.14 201.413 275.14C199.973 275.14 198.943 275.59 198.323 276.49C197.703 277.37 197.393 278.65 197.393 280.33V289H194.243V278.89C194.243 278.07 194.123 277.38 193.883 276.82C193.663 276.26 193.333 275.84 192.893 275.56C192.453 275.28 191.883 275.14 191.183 275.14C190.183 275.14 189.393 275.36 188.813 275.8C188.233 276.24 187.813 276.89 187.553 277.75C187.313 278.59 187.193 279.62 187.193 280.84V289H184.013V272.83H186.533L186.983 274.99H187.163C187.503 274.43 187.913 273.97 188.393 273.61C188.893 273.25 189.443 272.98 190.043 272.8C190.643 272.62 191.263 272.53 191.903 272.53C193.123 272.53 194.153 272.75 194.993 273.19C195.833 273.61 196.443 274.26 196.823 275.14H197.063C197.583 274.24 198.303 273.58 199.223 273.16C200.143 272.74 201.113 272.53 202.133 272.53Z" fill="white"/>
<line x1="237" y1="3.0598e-07" x2="237" y2="292" stroke="white" stroke-width="14"/>
</svg>
